<svg width="29" height="28" viewBox="0 0 29 28" fill="none" xmlns="http://www.w3.org/2000/svg">
<path fill-rule="evenodd" clip-rule="evenodd" d="M15.7333 4.73338C16.3408 4.1259 17.3257 4.1259 17.9332 4.73338L26.0998 12.9001C26.3916 13.1918 26.5554 13.5874 26.5554 14C26.5554 14.4126 26.3916 14.8082 26.0998 15.0999L17.9332 23.2666C17.3257 23.8741 16.3408 23.8741 15.7333 23.2666C15.1258 22.6591 15.1258 21.6742 15.7333 21.0667L21.2444 15.5555L3.99989 15.5555C3.14078 15.5555 2.44434 14.8591 2.44434 14C2.44434 13.1409 3.14078 12.4444 3.99989 12.4444L21.2444 12.4444L15.7333 6.93327C15.1258 6.32579 15.1258 5.34086 15.7333 4.73338Z" fill="#777981"/>
</svg>
