<svg width="578" height="25" viewBox="0 0 578 25" fill="none" xmlns="http://www.w3.org/2000/svg">
<path d="M36.0131 0.878804H25.3464L18.1465 14.2121L10.9465 0.878804H0.279785V24.2121H8.94645V13.1121L15.3131 24.2121H20.9798L27.3464 13.1121V24.2121H36.0131V0.878804Z" fill="#F2F2F2"/>
<path d="M59.4425 24.2121H68.9759L59.3092 0.878804H46.4425L36.7759 24.2121H46.3092L47.9092 20.0121H57.8425L59.4425 24.2121ZM50.1759 14.0121L52.8759 6.8788L55.5759 14.0121H50.1759Z" fill="#F2F2F2"/>
<path d="M97.0061 9.81214C97.0061 4.61214 93.3727 0.878804 88.0727 0.878804H69.7394V24.2121H78.4061V18.7455H83.5061L86.7394 24.2121H97.0061L92.8727 17.5121C95.4394 16.0121 97.0061 13.2121 97.0061 9.81214ZM78.4061 8.21214H86.4061C87.2727 8.21214 88.3394 8.21214 88.3394 9.81214C88.3394 11.4121 87.2727 11.4121 86.4061 11.4121H78.4061V8.21214Z" fill="#F2F2F2"/>
<path d="M106.739 0.878804H98.0727V24.2121H106.739V0.878804Z" fill="#F2F2F2"/>
<path d="M122.152 24.5455C132.386 24.5455 136.819 20.6121 136.819 12.5121C136.819 4.44547 132.386 0.545471 122.152 0.545471C111.886 0.545471 107.486 4.41214 107.486 12.5121C107.486 20.6455 111.886 24.5455 122.152 24.5455ZM122.152 17.2121C117.052 17.2121 116.152 15.0121 116.152 12.5121C116.152 10.0455 117.019 7.87881 122.152 7.87881C127.286 7.87881 128.152 10.0788 128.152 12.5121C128.152 14.9788 127.252 17.2121 122.152 17.2121Z" fill="#F2F2F2"/>
<path d="M151.001 15.9788C151.001 22.9121 156.334 24.5455 165.901 24.5455C175.468 24.5455 180.801 22.9121 180.801 16.4788C180.801 10.3788 175.101 9.74547 165.901 9.3788C160.834 9.1788 160.001 9.21214 160.001 8.31214C160.001 7.41214 160.834 7.21214 164.901 7.21214C169.134 7.21214 171.134 7.4788 171.134 8.71214H179.801C179.801 2.74547 174.668 0.545471 165.568 0.545471C156.368 0.545471 151.334 2.74547 151.334 7.87881C151.334 13.3121 155.368 15.0455 165.901 15.3788C171.368 15.5455 172.134 15.6788 172.134 16.6788C172.134 17.5455 171.368 17.8788 166.234 17.8788C160.734 17.8788 159.668 17.1121 159.668 15.9788H151.001Z" fill="#F2F2F2"/>
<path d="M202.229 24.2121H211.762L202.096 0.878804H189.229L179.562 24.2121H189.096L190.696 20.0121H200.629L202.229 24.2121ZM192.962 14.0121L195.662 6.8788L198.362 14.0121H192.962Z" fill="#F2F2F2"/>
<path d="M233.926 0.878804V14.6455L223.859 0.878804H212.526V24.2121H221.193V10.4455L231.259 24.2121H242.593V0.878804H233.926Z" fill="#F2F2F2"/>
<path d="M272.35 0.878804H243.683V8.21214H253.683V24.2121H262.35V8.21214H272.35V0.878804Z" fill="#F2F2F2"/>
<path d="M287.432 24.5455C297.665 24.5455 302.099 20.6121 302.099 12.5121C302.099 4.44547 297.665 0.545471 287.432 0.545471C277.165 0.545471 272.765 4.41214 272.765 12.5121C272.765 20.6455 277.165 24.5455 287.432 24.5455ZM287.432 17.2121C282.332 17.2121 281.432 15.0121 281.432 12.5121C281.432 10.0455 282.299 7.87881 287.432 7.87881C292.565 7.87881 293.432 10.0788 293.432 12.5121C293.432 14.9788 292.532 17.2121 287.432 17.2121Z" fill="#F2F2F2"/>
<path d="M302.857 15.9788C302.857 22.9121 308.19 24.5455 317.757 24.5455C327.323 24.5455 332.657 22.9121 332.657 16.4788C332.657 10.3788 326.957 9.74547 317.757 9.3788C312.69 9.1788 311.857 9.21214 311.857 8.31214C311.857 7.41214 312.69 7.21214 316.757 7.21214C320.99 7.21214 322.99 7.4788 322.99 8.71214H331.657C331.657 2.74547 326.523 0.545471 317.423 0.545471C308.223 0.545471 303.19 2.74547 303.19 7.87881C303.19 13.3121 307.223 15.0455 317.757 15.3788C323.223 15.5455 323.99 15.6788 323.99 16.6788C323.99 17.5455 323.223 17.8788 318.09 17.8788C312.59 17.8788 311.523 17.1121 311.523 15.9788H302.857Z" fill="#F2F2F2"/>
<path d="M375.449 11.5455C376.616 10.2455 377.283 8.64547 377.283 7.01214C377.283 3.57881 375.649 0.878804 370.349 0.878804H349.816V24.2121H371.149C376.449 24.2121 378.749 21.3455 378.749 17.4121C378.749 14.7121 377.449 12.7788 375.449 11.5455ZM355.816 5.21214H368.183C369.816 5.21214 371.283 5.21214 371.283 7.61214C371.283 10.0455 369.816 10.0455 368.216 10.0455H368.183H355.816V5.21214ZM369.683 19.5788H355.816V14.6455H369.683C371.283 14.6455 372.749 14.6455 372.749 17.1121C372.749 19.5788 371.283 19.5788 369.683 19.5788Z" fill="#F2F2F2"/>
<path d="M386.819 19.1788V0.878804H380.819V24.2121H404.819V19.1788H386.819Z" fill="#F2F2F2"/>
<path d="M420.425 24.5455C430.659 24.5455 435.092 20.2455 435.092 12.5121C435.092 4.81214 430.659 0.545471 420.425 0.545471C410.159 0.545471 405.759 4.77881 405.759 12.5121C405.759 20.2788 410.159 24.5455 420.425 24.5455ZM420.425 19.5121C414.192 19.5121 411.759 17.3121 411.759 12.5121C411.759 7.74547 414.159 5.5788 420.425 5.5788C426.692 5.5788 429.092 7.7788 429.092 12.5121C429.092 17.2788 426.659 19.5121 420.425 19.5121Z" fill="#F2F2F2"/>
<path d="M437.022 12.5121C437.022 20.2788 441.422 24.5455 451.688 24.5455C460.988 24.5455 465.655 20.9788 466.255 14.2121H460.155C459.588 18.0121 456.655 19.5121 451.688 19.5121C445.622 19.5121 443.022 17.3121 443.022 12.5121C443.022 7.74547 445.588 5.5788 451.688 5.5788C456.688 5.5788 459.588 7.04547 460.155 10.8121H466.255C465.655 4.0788 460.988 0.545471 451.688 0.545471C441.422 0.545471 437.022 4.77881 437.022 12.5121Z" fill="#F2F2F2"/>
<path d="M482.854 24.5455C493.087 24.5455 497.52 20.2455 497.52 12.5121C497.52 4.81214 493.087 0.545471 482.854 0.545471C472.587 0.545471 468.187 4.77881 468.187 12.5121C468.187 20.2788 472.587 24.5455 482.854 24.5455ZM482.854 19.5121C476.62 19.5121 474.187 17.3121 474.187 12.5121C474.187 7.74547 476.587 5.5788 482.854 5.5788C489.12 5.5788 491.52 7.7788 491.52 12.5121C491.52 17.2788 489.087 19.5121 482.854 19.5121Z" fill="#F2F2F2"/>
<path d="M540.687 24.2121H547.321L535.254 0.878804H527.154L515.121 24.2121H521.721L524.221 19.2455H538.187L540.687 24.2121ZM526.454 14.7788L531.221 5.31214L535.954 14.7788H526.454Z" fill="#F2F2F2"/>
<path d="M577.073 15.3455H572.406V0.878804H566.406L549.94 15.3455V20.4121H566.406V24.2121H572.406V20.4121H577.073V15.3455ZM556.406 15.3455L566.406 6.8788V15.3455H556.406Z" fill="#F2F2F2"/>
</svg>
