<svg width="389" height="20" viewBox="0 0 389 20" fill="none" xmlns="http://www.w3.org/2000/svg">
<path d="M25.8222 2.22222H18.7111L13.9111 11.1111L9.11111 2.22222H2V17.7778H7.77778V10.3778L12.0222 17.7778H15.8L20.0444 10.3778V17.7778H25.8222V2.22222Z" fill="#F2F2F2"/>
<path d="M41.4418 17.7778H47.7974L41.3529 2.22222H32.7752L26.3307 17.7778H32.6863L33.753 14.9778H40.3752L41.4418 17.7778ZM35.2641 10.9778L37.0641 6.22222L38.8641 10.9778H35.2641Z" fill="#F2F2F2"/>
<path d="M66.4842 8.17778C66.4842 4.71111 64.062 2.22222 60.5286 2.22222H48.3064V17.7778H54.0842V14.1333H57.4842L59.6398 17.7778H66.4842L63.7286 13.3111C65.4398 12.3111 66.4842 10.4444 66.4842 8.17778ZM54.0842 7.11111H59.4175C59.9953 7.11111 60.7064 7.11111 60.7064 8.17778C60.7064 9.24444 59.9953 9.24445 59.4175 9.24445H54.0842V7.11111Z" fill="#F2F2F2"/>
<path d="M72.9731 2.22222H67.1953V17.7778H72.9731V2.22222Z" fill="#F2F2F2"/>
<path d="M83.2483 18C90.0705 18 93.026 15.3778 93.026 9.97778C93.026 4.6 90.0705 2 83.2483 2C76.4038 2 73.4705 4.57778 73.4705 9.97778C73.4705 15.4 76.4038 18 83.2483 18ZM83.2483 13.1111C79.8483 13.1111 79.2483 11.6444 79.2483 9.97778C79.2483 8.33333 79.826 6.88889 83.2483 6.88889C86.6705 6.88889 87.2483 8.35556 87.2483 9.97778C87.2483 11.6222 86.6483 13.1111 83.2483 13.1111Z" fill="#F2F2F2"/>
<path d="M102.481 12.2889C102.481 16.9111 106.036 18 112.414 18C118.792 18 122.348 16.9111 122.348 12.6222C122.348 8.55556 118.548 8.13333 112.414 7.88889C109.036 7.75555 108.481 7.77778 108.481 7.17778C108.481 6.57778 109.036 6.44444 111.748 6.44444C114.57 6.44444 115.903 6.62222 115.903 7.44444H121.681C121.681 3.46667 118.259 2 112.192 2C106.059 2 102.703 3.46667 102.703 6.88889C102.703 10.5111 105.392 11.6667 112.414 11.8889C116.059 12 116.57 12.0889 116.57 12.7556C116.57 13.3333 116.059 13.5556 112.636 13.5556C108.97 13.5556 108.259 13.0444 108.259 12.2889H102.481Z" fill="#F2F2F2"/>
<path d="M136.633 17.7778H142.988L136.544 2.22222H127.966L121.522 17.7778H127.877L128.944 14.9778H135.566L136.633 17.7778ZM130.455 10.9778L132.255 6.22222L134.055 10.9778H130.455Z" fill="#F2F2F2"/>
<path d="M157.764 2.22222V11.4L151.053 2.22222H143.497V17.7778H149.275V8.6L155.986 17.7778H163.542V2.22222H157.764Z" fill="#F2F2F2"/>
<path d="M183.38 2.22222H164.269V7.11111H170.936V17.7778H176.714V7.11111H183.38V2.22222Z" fill="#F2F2F2"/>
<path d="M193.435 18C200.257 18 203.213 15.3778 203.213 9.97778C203.213 4.6 200.257 2 193.435 2C186.59 2 183.657 4.57778 183.657 9.97778C183.657 15.4 186.59 18 193.435 18ZM193.435 13.1111C190.035 13.1111 189.435 11.6444 189.435 9.97778C189.435 8.33333 190.013 6.88889 193.435 6.88889C196.857 6.88889 197.435 8.35556 197.435 9.97778C197.435 11.6222 196.835 13.1111 193.435 13.1111Z" fill="#F2F2F2"/>
<path d="M203.718 12.2889C203.718 16.9111 207.273 18 213.651 18C220.029 18 223.585 16.9111 223.585 12.6222C223.585 8.55556 219.785 8.13333 213.651 7.88889C210.273 7.75555 209.718 7.77778 209.718 7.17778C209.718 6.57778 210.273 6.44444 212.985 6.44444C215.807 6.44444 217.14 6.62222 217.14 7.44444H222.918C222.918 3.46667 219.496 2 213.429 2C207.296 2 203.94 3.46667 203.94 6.88889C203.94 10.5111 206.629 11.6667 213.651 11.8889C217.296 12 217.807 12.0889 217.807 12.7556C217.807 13.3333 217.296 13.5556 213.873 13.5556C210.207 13.5556 209.496 13.0444 209.496 12.2889H203.718Z" fill="#F2F2F2"/>
<path d="M252.113 9.33333C252.891 8.46667 253.335 7.4 253.335 6.31111C253.335 4.02222 252.246 2.22222 248.713 2.22222H235.024V17.7778H249.246C252.78 17.7778 254.313 15.8667 254.313 13.2444C254.313 11.4444 253.446 10.1556 252.113 9.33333ZM239.024 5.11111H247.269C248.357 5.11111 249.335 5.11111 249.335 6.71111C249.335 8.33333 248.357 8.33333 247.291 8.33333H247.269H239.024V5.11111ZM248.269 14.6889H239.024V11.4H248.269C249.335 11.4 250.313 11.4 250.313 13.0444C250.313 14.6889 249.335 14.6889 248.269 14.6889Z" fill="#F2F2F2"/>
<path d="M259.693 14.4222V2.22222H255.692V17.7778H271.693V14.4222H259.693Z" fill="#F2F2F2"/>
<path d="M282.097 18C288.919 18 291.875 15.1333 291.875 9.97778C291.875 4.84444 288.919 2 282.097 2C275.253 2 272.319 4.82222 272.319 9.97778C272.319 15.1556 275.253 18 282.097 18ZM282.097 14.6444C277.941 14.6444 276.319 13.1778 276.319 9.97778C276.319 6.8 277.919 5.35556 282.097 5.35556C286.275 5.35556 287.875 6.82222 287.875 9.97778C287.875 13.1556 286.253 14.6444 282.097 14.6444Z" fill="#F2F2F2"/>
<path d="M293.161 9.97778C293.161 15.1556 296.095 18 302.939 18C309.139 18 312.25 15.6222 312.65 11.1111H308.584C308.206 13.6444 306.25 14.6444 302.939 14.6444C298.895 14.6444 297.161 13.1778 297.161 9.97778C297.161 6.8 298.872 5.35556 302.939 5.35556C306.272 5.35556 308.206 6.33333 308.584 8.84444H312.65C312.25 4.35556 309.139 2 302.939 2C296.095 2 293.161 4.82222 293.161 9.97778Z" fill="#F2F2F2"/>
<path d="M323.716 18C330.538 18 333.494 15.1333 333.494 9.97778C333.494 4.84444 330.538 2 323.716 2C316.871 2 313.938 4.82222 313.938 9.97778C313.938 15.1556 316.871 18 323.716 18ZM323.716 14.6444C319.56 14.6444 317.938 13.1778 317.938 9.97778C317.938 6.8 319.538 5.35556 323.716 5.35556C327.894 5.35556 329.494 6.82222 329.494 9.97778C329.494 13.1556 327.871 14.6444 323.716 14.6444Z" fill="#F2F2F2"/>
<path d="M362.272 17.7778H366.694L358.649 2.22222H353.249L345.227 17.7778H349.627L351.294 14.4667H360.605L362.272 17.7778ZM352.783 11.4889L355.961 5.17778L359.116 11.4889H352.783Z" fill="#F2F2F2"/>
<path d="M386.529 11.8667H383.418V2.22222H379.418L368.44 11.8667V15.2444H379.418V17.7778H383.418V15.2444H386.529V11.8667ZM372.751 11.8667L379.418 6.22222V11.8667H372.751Z" fill="#F2F2F2"/>
</svg>
