<svg width="948" height="47" viewBox="0 0 948 47" fill="none" xmlns="http://www.w3.org/2000/svg">
<path d="M68.8878 1.20006H48.4078L34.5838 26.8001L20.7598 1.20006H0.279785V46.0001H16.9198V24.6881L29.1438 46.0001H40.0238L52.2478 24.6881V46.0001H68.8878V1.20006Z" fill="#F2F2F2"/>
<path d="M113.872 46.0001H132.176L113.616 1.20006H88.9123L70.3523 46.0001H88.6563L91.7283 37.9361H110.8L113.872 46.0001ZM96.0803 26.4161L101.264 12.7201L106.448 26.4161H96.0803Z" fill="#F2F2F2"/>
<path d="M185.994 18.3521C185.994 8.36806 179.018 1.20006 168.842 1.20006H133.642V46.0001H150.282V35.5041H160.074L166.282 46.0001H185.994L178.058 33.1361C182.986 30.2561 185.994 24.8801 185.994 18.3521ZM150.282 15.2801H165.642C167.306 15.2801 169.354 15.2801 169.354 18.3521C169.354 21.4241 167.306 21.4241 165.642 21.4241H150.282V15.2801Z" fill="#F2F2F2"/>
<path d="M204.682 1.20006H188.042V46.0001H204.682V1.20006Z" fill="#F2F2F2"/>
<path d="M234.275 46.6401C253.923 46.6401 262.435 39.0881 262.435 23.5361C262.435 8.04806 253.923 0.560059 234.275 0.560059C214.563 0.560059 206.115 7.98406 206.115 23.5361C206.115 39.1521 214.563 46.6401 234.275 46.6401ZM234.275 32.5601C224.483 32.5601 222.755 28.3361 222.755 23.5361C222.755 18.8001 224.419 14.6401 234.275 14.6401C244.131 14.6401 245.795 18.8641 245.795 23.5361C245.795 28.2721 244.067 32.5601 234.275 32.5601Z" fill="#F2F2F2"/>
<path d="M289.665 30.1921C289.665 43.5041 299.905 46.6401 318.273 46.6401C336.641 46.6401 346.881 43.5041 346.881 31.1521C346.881 19.4401 335.937 18.2241 318.273 17.5201C308.545 17.1361 306.945 17.2001 306.945 15.4721C306.945 13.7441 308.545 13.3601 316.353 13.3601C324.481 13.3601 328.321 13.8721 328.321 16.2401H344.961C344.961 4.78406 335.105 0.560059 317.633 0.560059C299.969 0.560059 290.305 4.78406 290.305 14.6401C290.305 25.0721 298.049 28.4001 318.273 29.0401C328.769 29.3601 330.241 29.6161 330.241 31.5361C330.241 33.2001 328.769 33.8401 318.913 33.8401C308.353 33.8401 306.305 32.3681 306.305 30.1921H289.665Z" fill="#F2F2F2"/>
<path d="M388.022 46.0001H406.326L387.766 1.20006H363.062L344.502 46.0001H362.806L365.878 37.9361H384.95L388.022 46.0001ZM370.23 26.4161L375.414 12.7201L380.598 26.4161H370.23Z" fill="#F2F2F2"/>
<path d="M448.88 1.20006V27.6321L429.552 1.20006H407.792V46.0001H424.432V19.5681L443.76 46.0001H465.52V1.20006H448.88Z" fill="#F2F2F2"/>
<path d="M522.655 1.20006H467.615V15.2801H486.815V46.0001H503.455V15.2801H522.655V1.20006Z" fill="#F2F2F2"/>
<path d="M551.612 46.6401C571.26 46.6401 579.772 39.0881 579.772 23.5361C579.772 8.04806 571.26 0.560059 551.612 0.560059C531.9 0.560059 523.452 7.98406 523.452 23.5361C523.452 39.1521 531.9 46.6401 551.612 46.6401ZM551.612 32.5601C541.82 32.5601 540.092 28.3361 540.092 23.5361C540.092 18.8001 541.756 14.6401 551.612 14.6401C561.468 14.6401 563.132 18.8641 563.132 23.5361C563.132 28.2721 561.404 32.5601 551.612 32.5601Z" fill="#F2F2F2"/>
<path d="M581.227 30.1921C581.227 43.5041 591.467 46.6401 609.835 46.6401C628.203 46.6401 638.443 43.5041 638.443 31.1521C638.443 19.4401 627.499 18.2241 609.835 17.5201C600.107 17.1361 598.507 17.2001 598.507 15.4721C598.507 13.7441 600.107 13.3601 607.915 13.3601C616.043 13.3601 619.883 13.8721 619.883 16.2401H636.523C636.523 4.78406 626.667 0.560059 609.195 0.560059C591.531 0.560059 581.867 4.78406 581.867 14.6401C581.867 25.0721 589.611 28.4001 609.835 29.0401C620.331 29.3601 621.803 29.6161 621.803 31.5361C621.803 33.2001 620.331 33.8401 610.475 33.8401C599.915 33.8401 597.867 32.3681 597.867 30.1921H581.227Z" fill="#F2F2F2"/>
<path d="M692.724 30.5761H704.756C704.116 33.5841 700.212 34.4801 693.812 34.4801C684.02 34.4801 682.292 29.6161 682.292 24.1761C682.292 18.8001 683.956 14.6401 693.812 14.6401C700.852 14.6401 704.116 16.7521 704.756 19.0561H721.78C721.076 6.83206 711.732 0.560059 693.812 0.560059C675.38 0.560059 665.652 7.98406 665.652 23.5361C665.652 39.1521 675.38 46.6401 691.892 46.6401C701.3 46.6401 707.188 43.9521 710.964 39.5361L712.18 46.0001H721.78V21.6161H692.724V30.5761Z" fill="#F2F2F2"/>
<path d="M776.232 18.3521C776.232 8.36806 769.256 1.20006 759.08 1.20006H723.88V46.0001H740.52V35.5041H750.312L756.52 46.0001H776.232L768.296 33.1361C773.224 30.2561 776.232 24.8801 776.232 18.3521ZM740.52 15.2801H755.88C757.544 15.2801 759.592 15.2801 759.592 18.3521C759.592 21.4241 757.544 21.4241 755.88 21.4241H740.52V15.2801Z" fill="#F2F2F2"/>
<path d="M805.8 46.6401C825.448 46.6401 833.96 39.0881 833.96 23.5361C833.96 8.04806 825.448 0.560059 805.8 0.560059C786.088 0.560059 777.64 7.98406 777.64 23.5361C777.64 39.1521 786.088 46.6401 805.8 46.6401ZM805.8 32.5601C796.008 32.5601 794.28 28.3361 794.28 23.5361C794.28 18.8001 795.944 14.6401 805.8 14.6401C815.656 14.6401 817.32 18.8641 817.32 23.5361C817.32 28.2721 815.592 32.5601 805.8 32.5601Z" fill="#F2F2F2"/>
<path d="M892.375 23.5361V1.20006H875.735V23.5361C875.735 28.2721 874.007 32.5601 864.215 32.5601C854.423 32.5601 852.695 28.3361 852.695 23.5361V1.20006H836.055V23.5361C836.055 39.1521 844.503 46.6401 864.215 46.6401C883.863 46.6401 892.375 39.0881 892.375 23.5361Z" fill="#F2F2F2"/>
<path d="M930.28 1.20006H895.08V46.0001H911.72V35.5041H930.28C940.456 35.5041 947.432 28.3361 947.432 18.3521C947.432 8.36806 940.456 1.20006 930.28 1.20006ZM927.08 21.4241H911.72V15.2801H927.08C928.744 15.2801 930.792 15.2801 930.792 18.3521C930.792 21.4241 928.744 21.4241 927.08 21.4241Z" fill="#F2F2F2"/>
</svg>
